<svg class="main-svg" xmlns="http://www.w3.org/2000/svg" xmlns:xlink="http://www.w3.org/1999/xlink" width="1000" height="600" style="" viewBox="0 0 1000 600"><rect x="0" y="0" width="1000" height="600" style="fill: rgb(255, 255, 255); fill-opacity: 1;"/><defs id="defs-fe4939"><g class="clips"><clipPath id="clipfe4939xyplot" class="plotclip"><rect width="840" height="410"/></clipPath><clipPath id="clipfe4939xy2plot" class="plotclip"><rect width="840" height="410"/></clipPath><clipPath class="axesclip" id="clipfe4939x"><rect x="80" y="0" width="840" height="600"/></clipPath><clipPath class="axesclip" id="clipfe4939y"><rect x="0" y="100" width="1000" height="410"/></clipPath><clipPath class="axesclip" id="clipfe4939xy"><rect x="80" y="100" width="840" height="410"/></clipPath><clipPath class="axesclip" id="clipfe4939y2"><rect x="0" y="100" width="1000" height="410"/></clipPath><clipPath class="axesclip" id="clipfe4939xy2"><rect x="80" y="100" width="840" height="410"/></clipPath></g><g class="gradients"/><g class="patterns"/></defs><g class="bglayer"><rect class="bg" x="80" y="100" width="840" height="410" style="fill: rgb(229, 236, 246); fill-opacity: 1; stroke-width: 0;"/></g><g class="layer-below"><g class="imagelayer"/><g class="shapelayer"/></g><g class="cartesianlayer"><g class="subplot xy"><g class="layer-subplot"><g class="shapelayer"/><g class="imagelayer"/></g><g class="minor-gridlayer"><g class="x"/><g class="y"/><g class="y2"/></g><g class="gridlayer"><g class="x"/><g class="y"><path class="ygrid crisp" transform="translate(0,439.73)" d="M80,0h840" style="stroke: rgb(255, 255, 255); stroke-opacity: 1; stroke-width: 1px;"/><path class="ygrid crisp" transform="translate(0,369.47)" d="M80,0h840" style="stroke: rgb(255, 255, 255); stroke-opacity: 1; stroke-width: 1px;"/><path class="ygrid crisp" transform="translate(0,299.2)" d="M80,0h840" style="stroke: rgb(255, 255, 255); stroke-opacity: 1; stroke-width: 1px;"/><path class="ygrid crisp" transform="translate(0,228.93)" d="M80,0h840" style="stroke: rgb(255, 255, 255); stroke-opacity: 1; stroke-width: 1px;"/><path class="ygrid crisp" transform="translate(0,158.66)" d="M80,0h840" style="stroke: rgb(255, 255, 255); stroke-opacity: 1; stroke-width: 1px;"/></g><g class="y2"><path class="y2grid crisp" transform="translate(0,465.23)" d="M80,0h840" style="stroke: rgb(255, 255, 255); stroke-opacity: 1; stroke-width: 1px;"/><path class="y2grid crisp" transform="translate(0,420.46)" d="M80,0h840" style="stroke: rgb(255, 255, 255); stroke-opacity: 1; stroke-width: 1px;"/><path class="y2grid crisp" transform="translate(0,375.69)" d="M80,0h840" style="stroke: rgb(255, 255, 255); stroke-opacity: 1; stroke-width: 1px;"/><path class="y2grid crisp" transform="translate(0,330.90999999999997)" d="M80,0h840" style="stroke: rgb(255, 255, 255); stroke-opacity: 1; stroke-width: 1px;"/><path class="y2grid crisp" transform="translate(0,286.14)" d="M80,0h840" style="stroke: rgb(255, 255, 255); stroke-opacity: 1; stroke-width: 1px;"/><path class="y2grid crisp" transform="translate(0,241.37)" d="M80,0h840" style="stroke: rgb(255, 255, 255); stroke-opacity: 1; stroke-width: 1px;"/><path class="y2grid crisp" transform="translate(0,196.6)" d="M80,0h840" style="stroke: rgb(255, 255, 255); stroke-opacity: 1; stroke-width: 1px;"/><path class="y2grid crisp" transform="translate(0,151.82999999999998)" d="M80,0h840" style="stroke: rgb(255, 255, 255); stroke-opacity: 1; stroke-width: 1px;"/><path class="y2grid crisp" transform="translate(0,107.06)" d="M80,0h840" style="stroke: rgb(255, 255, 255); stroke-opacity: 1; stroke-width: 1px;"/></g></g><g class="zerolinelayer"><path class="yzl zl crisp" transform="translate(0,510)" d="M80,0h840" style="stroke: rgb(255, 255, 255); stroke-opacity: 1; stroke-width: 2px;"/><path class="y2zl zl crisp" transform="translate(0,510)" d="M80,0h840" style="stroke: rgb(255, 255, 255); stroke-opacity: 1; stroke-width: 2px;"/></g><g class="layer-between"><g class="shapelayer"/><g class="imagelayer"/></g><path class="xlines-below"/><path class="ylines-below"/><g class="overlines-below"><path class="xy2-x"/><path class="xy2-y"/></g><g class="xaxislayer-below"/><g class="yaxislayer-below"/><g class="overaxes-below"><g class="xy2-x"/><g class="xy2-y"/></g><g class="overplot"><g class="xy" transform="translate(80,100)" clip-path="url(#clipfe4939xyplot)"><g class="barlayer mlayer"><g class="trace bars" style="opacity: 1;"><g class="points"><g class="point"><path d="M6.65,410V272.38H32.32V410Z" style="vector-effect: none; opacity: 1; stroke-width: 0.5px; fill: rgb(213, 134, 111); fill-opacity: 1; stroke: rgb(229, 236, 246); stroke-opacity: 1;"/></g><g class="point"><path d="M42.17,410V258.02H67.84V410Z" style="vector-effect: none; opacity: 1; stroke-width: 0.5px; fill: rgb(213, 134, 111); fill-opacity: 1; stroke: rgb(229, 236, 246); stroke-opacity: 1;"/></g><g class="point"><path d="M75.41,410V246.86H101.08V410Z" style="vector-effect: none; opacity: 1; stroke-width: 0.5px; fill: rgb(213, 134, 111); fill-opacity: 1; stroke: rgb(229, 236, 246); stroke-opacity: 1;"/></g><g class="point"><path d="M110.93,410V247.65H136.6V410Z" style="vector-effect: none; opacity: 1; stroke-width: 0.5px; fill: rgb(213, 134, 111); fill-opacity: 1; stroke: rgb(229, 236, 246); stroke-opacity: 1;"/></g><g class="point"><path d="M145.31,410V206.52H170.98V410Z" style="vector-effect: none; opacity: 1; stroke-width: 0.5px; fill: rgb(213, 134, 111); fill-opacity: 1; stroke: rgb(229, 236, 246); stroke-opacity: 1;"/></g><g class="point"><path d="M180.83,410V176.13H206.5V410Z" style="vector-effect: none; opacity: 1; stroke-width: 0.5px; fill: rgb(213, 134, 111); fill-opacity: 1; stroke: rgb(229, 236, 246); stroke-opacity: 1;"/></g><g class="point"><path d="M215.21,410V153.29H240.88V410Z" style="vector-effect: none; opacity: 1; stroke-width: 0.5px; fill: rgb(213, 134, 111); fill-opacity: 1; stroke: rgb(229, 236, 246); stroke-opacity: 1;"/></g><g class="point"><path d="M250.74,410V141.04H276.41V410Z" style="vector-effect: none; opacity: 1; stroke-width: 0.5px; fill: rgb(213, 134, 111); fill-opacity: 1; stroke: rgb(229, 236, 246); stroke-opacity: 1;"/></g><g class="point"><path d="M286.26,410V166.94H311.93V410Z" style="vector-effect: none; opacity: 1; stroke-width: 0.5px; fill: rgb(213, 134, 111); fill-opacity: 1; stroke: rgb(229, 236, 246); stroke-opacity: 1;"/></g><g class="point"><path d="M320.64,410V129.06H346.31V410Z" style="vector-effect: none; opacity: 1; stroke-width: 0.5px; fill: rgb(213, 134, 111); fill-opacity: 1; stroke: rgb(229, 236, 246); stroke-opacity: 1;"/></g><g class="point"><path d="M356.17,410V148.27H381.84V410Z" style="vector-effect: none; opacity: 1; stroke-width: 0.5px; fill: rgb(213, 134, 111); fill-opacity: 1; stroke: rgb(229, 236, 246); stroke-opacity: 1;"/></g><g class="point"><path d="M390.55,410V123.52H416.22V410Z" style="vector-effect: none; opacity: 1; stroke-width: 0.5px; fill: rgb(213, 134, 111); fill-opacity: 1; stroke: rgb(229, 236, 246); stroke-opacity: 1;"/></g><g class="point"><path d="M426.07,410V85.02H451.74V410Z" style="vector-effect: none; opacity: 1; stroke-width: 0.5px; fill: rgb(213, 134, 111); fill-opacity: 1; stroke: rgb(229, 236, 246); stroke-opacity: 1;"/></g><g class="point"><path d="M461.6,410V52.23H487.27V410Z" style="vector-effect: none; opacity: 1; stroke-width: 0.5px; fill: rgb(213, 134, 111); fill-opacity: 1; stroke: rgb(229, 236, 246); stroke-opacity: 1;"/></g><g class="point"><path d="M493.69,410V56.48H519.36V410Z" style="vector-effect: none; opacity: 1; stroke-width: 0.5px; fill: rgb(213, 134, 111); fill-opacity: 1; stroke: rgb(229, 236, 246); stroke-opacity: 1;"/></g><g class="point"><path d="M529.21,410V40.03H554.88V410Z" style="vector-effect: none; opacity: 1; stroke-width: 0.5px; fill: rgb(213, 134, 111); fill-opacity: 1; stroke: rgb(229, 236, 246); stroke-opacity: 1;"/></g><g class="point"><path d="M563.59,410V30.94H589.26V410Z" style="vector-effect: none; opacity: 1; stroke-width: 0.5px; fill: rgb(213, 134, 111); fill-opacity: 1; stroke: rgb(229, 236, 246); stroke-opacity: 1;"/></g><g class="point"><path d="M599.12,410V31.03H624.79V410Z" style="vector-effect: none; opacity: 1; stroke-width: 0.5px; fill: rgb(213, 134, 111); fill-opacity: 1; stroke: rgb(229, 236, 246); stroke-opacity: 1;"/></g><g class="point"><path d="M633.5,410V30.81H659.17V410Z" style="vector-effect: none; opacity: 1; stroke-width: 0.5px; fill: rgb(213, 134, 111); fill-opacity: 1; stroke: rgb(229, 236, 246); stroke-opacity: 1;"/></g><g class="point"><path d="M669.02,410V50.56H694.69V410Z" style="vector-effect: none; opacity: 1; stroke-width: 0.5px; fill: rgb(213, 134, 111); fill-opacity: 1; stroke: rgb(229, 236, 246); stroke-opacity: 1;"/></g><g class="point"><path d="M704.55,410V72.74H730.22V410Z" style="vector-effect: none; opacity: 1; stroke-width: 0.5px; fill: rgb(213, 134, 111); fill-opacity: 1; stroke: rgb(229, 236, 246); stroke-opacity: 1;"/></g><g class="point"><path d="M738.92,410V20.5H764.59V410Z" style="vector-effect: none; opacity: 1; stroke-width: 0.5px; fill: rgb(213, 134, 111); fill-opacity: 1; stroke: rgb(229, 236, 246); stroke-opacity: 1;"/></g><g class="point"><path d="M774.45,410V51.4H800.12V410Z" style="vector-effect: none; opacity: 1; stroke-width: 0.5px; fill: rgb(213, 134, 111); fill-opacity: 1; stroke: rgb(229, 236, 246); stroke-opacity: 1;"/></g><g class="point"><path d="M808.83,410V36.63H834.5V410Z" style="vector-effect: none; opacity: 1; stroke-width: 0.5px; fill: rgb(213, 134, 111); fill-opacity: 1; stroke: rgb(229, 236, 246); stroke-opacity: 1;"/></g></g></g></g></g><g class="xy2" transform="translate(80,100)" clip-path="url(#clipfe4939xy2plot)"><g class="scatterlayer mlayer"><g class="trace scatter trace5b6f91" style="stroke-miterlimit: 2; opacity: 1;"><g class="fills"/><g class="errorbars"/><g class="lines"><path class="js-line" d="M19.48,109.23L55.01,161.7L88.24,212.65L123.77,239.15L158.14,268.97L193.67,271.3L228.05,198.95L263.57,153.55L299.1,268.79L333.48,187.22L369,214.08L403.38,141.82L438.91,24.25L474.43,101.08L506.52,199.49L542.05,33.11L576.43,95.26L611.95,189.28L646.33,81.83L681.86,126.33L717.38,221.33L751.76,207.99L787.29,125.25L821.66,108.87" style="vector-effect: none; fill: none; stroke: rgb(26, 82, 118); stroke-opacity: 1; stroke-width: 3px; opacity: 1;"/></g><g class="points"><path class="point" transform="translate(19.48,109.23)" d="M3,0A3,3 0 1,1 0,-3A3,3 0 0,1 3,0Z" style="opacity: 1; stroke-width: 0px; fill: rgb(26, 82, 118); fill-opacity: 1;"/><path class="point" transform="translate(55.01,161.7)" d="M3,0A3,3 0 1,1 0,-3A3,3 0 0,1 3,0Z" style="opacity: 1; stroke-width: 0px; fill: rgb(26, 82, 118); fill-opacity: 1;"/><path class="point" transform="translate(88.24,212.65)" d="M3,0A3,3 0 1,1 0,-3A3,3 0 0,1 3,0Z" style="opacity: 1; stroke-width: 0px; fill: rgb(26, 82, 118); fill-opacity: 1;"/><path class="point" transform="translate(123.77,239.15)" d="M3,0A3,3 0 1,1 0,-3A3,3 0 0,1 3,0Z" style="opacity: 1; stroke-width: 0px; fill: rgb(26, 82, 118); fill-opacity: 1;"/><path class="point" transform="translate(158.14,268.97)" d="M3,0A3,3 0 1,1 0,-3A3,3 0 0,1 3,0Z" style="opacity: 1; stroke-width: 0px; fill: rgb(26, 82, 118); fill-opacity: 1;"/><path class="point" transform="translate(193.67,271.3)" d="M3,0A3,3 0 1,1 0,-3A3,3 0 0,1 3,0Z" style="opacity: 1; stroke-width: 0px; fill: rgb(26, 82, 118); fill-opacity: 1;"/><path class="point" transform="translate(228.05,198.95)" d="M3,0A3,3 0 1,1 0,-3A3,3 0 0,1 3,0Z" style="opacity: 1; stroke-width: 0px; fill: rgb(26, 82, 118); fill-opacity: 1;"/><path class="point" transform="translate(263.57,153.55)" d="M3,0A3,3 0 1,1 0,-3A3,3 0 0,1 3,0Z" style="opacity: 1; stroke-width: 0px; fill: rgb(26, 82, 118); fill-opacity: 1;"/><path class="point" transform="translate(299.1,268.79)" d="M3,0A3,3 0 1,1 0,-3A3,3 0 0,1 3,0Z" style="opacity: 1; stroke-width: 0px; fill: rgb(26, 82, 118); fill-opacity: 1;"/><path class="point" transform="translate(333.48,187.22)" d="M3,0A3,3 0 1,1 0,-3A3,3 0 0,1 3,0Z" style="opacity: 1; stroke-width: 0px; fill: rgb(26, 82, 118); fill-opacity: 1;"/><path class="point" transform="translate(369,214.08)" d="M3,0A3,3 0 1,1 0,-3A3,3 0 0,1 3,0Z" style="opacity: 1; stroke-width: 0px; fill: rgb(26, 82, 118); fill-opacity: 1;"/><path class="point" transform="translate(403.38,141.82)" d="M3,0A3,3 0 1,1 0,-3A3,3 0 0,1 3,0Z" style="opacity: 1; stroke-width: 0px; fill: rgb(26, 82, 118); fill-opacity: 1;"/><path class="point" transform="translate(438.91,24.25)" d="M3,0A3,3 0 1,1 0,-3A3,3 0 0,1 3,0Z" style="opacity: 1; stroke-width: 0px; fill: rgb(26, 82, 118); fill-opacity: 1;"/><path class="point" transform="translate(474.43,101.08)" d="M3,0A3,3 0 1,1 0,-3A3,3 0 0,1 3,0Z" style="opacity: 1; stroke-width: 0px; fill: rgb(26, 82, 118); fill-opacity: 1;"/><path class="point" transform="translate(506.52,199.49)" d="M3,0A3,3 0 1,1 0,-3A3,3 0 0,1 3,0Z" style="opacity: 1; stroke-width: 0px; fill: rgb(26, 82, 118); fill-opacity: 1;"/><path class="point" transform="translate(542.05,33.11)" d="M3,0A3,3 0 1,1 0,-3A3,3 0 0,1 3,0Z" style="opacity: 1; stroke-width: 0px; fill: rgb(26, 82, 118); fill-opacity: 1;"/><path class="point" transform="translate(576.43,95.26)" d="M3,0A3,3 0 1,1 0,-3A3,3 0 0,1 3,0Z" style="opacity: 1; stroke-width: 0px; fill: rgb(26, 82, 118); fill-opacity: 1;"/><path class="point" transform="translate(611.95,189.28)" d="M3,0A3,3 0 1,1 0,-3A3,3 0 0,1 3,0Z" style="opacity: 1; stroke-width: 0px; fill: rgb(26, 82, 118); fill-opacity: 1;"/><path class="point" transform="translate(646.33,81.83)" d="M3,0A3,3 0 1,1 0,-3A3,3 0 0,1 3,0Z" style="opacity: 1; stroke-width: 0px; fill: rgb(26, 82, 118); fill-opacity: 1;"/><path class="point" transform="translate(681.86,126.33)" d="M3,0A3,3 0 1,1 0,-3A3,3 0 0,1 3,0Z" style="opacity: 1; stroke-width: 0px; fill: rgb(26, 82, 118); fill-opacity: 1;"/><path class="point" transform="translate(717.38,221.33)" d="M3,0A3,3 0 1,1 0,-3A3,3 0 0,1 3,0Z" style="opacity: 1; stroke-width: 0px; fill: rgb(26, 82, 118); fill-opacity: 1;"/><path class="point" transform="translate(751.76,207.99)" d="M3,0A3,3 0 1,1 0,-3A3,3 0 0,1 3,0Z" style="opacity: 1; stroke-width: 0px; fill: rgb(26, 82, 118); fill-opacity: 1;"/><path class="point" transform="translate(787.29,125.25)" d="M3,0A3,3 0 1,1 0,-3A3,3 0 0,1 3,0Z" style="opacity: 1; stroke-width: 0px; fill: rgb(26, 82, 118); fill-opacity: 1;"/><path class="point" transform="translate(821.66,108.87)" d="M3,0A3,3 0 1,1 0,-3A3,3 0 0,1 3,0Z" style="opacity: 1; stroke-width: 0px; fill: rgb(26, 82, 118); fill-opacity: 1;"/></g><g class="text"/></g></g></g></g><g class="zerolinelayer-above"/><path class="xlines-above crisp" d="M0,0" style="fill: none;"/><path class="ylines-above crisp" d="M0,0" style="fill: none;"/><g class="overlines-above"><path class="xy2-x crisp" d="M0,0" style="fill: none;"/><path class="xy2-y crisp" d="M0,0" style="fill: none;"/></g><g class="xaxislayer-above"><g class="xtick"><text text-anchor="middle" x="0" y="523" transform="translate(99.48,0)" style="font-family: 'Open Sans', verdana, arial, sans-serif; font-size: 12px; fill: rgb(42, 63, 95); fill-opacity: 1; white-space: pre;">Jan 2024</text></g><g class="xtick"><text text-anchor="middle" x="0" y="523" style="font-family: 'Open Sans', verdana, arial, sans-serif; font-size: 12px; fill: rgb(42, 63, 95); fill-opacity: 1; white-space: pre;" transform="translate(203.76999999999998,0)">Apr 2024</text></g><g class="xtick"><text text-anchor="middle" x="0" y="523" style="font-family: 'Open Sans', verdana, arial, sans-serif; font-size: 12px; fill: rgb(42, 63, 95); fill-opacity: 1; white-space: pre;" transform="translate(308.05,0)">Jul 2024</text></g><g class="xtick"><text text-anchor="middle" x="0" y="523" style="font-family: 'Open Sans', verdana, arial, sans-serif; font-size: 12px; fill: rgb(42, 63, 95); fill-opacity: 1; white-space: pre;" transform="translate(413.48,0)">Oct 2024</text></g><g class="xtick"><text text-anchor="middle" x="0" y="523" style="font-family: 'Open Sans', verdana, arial, sans-serif; font-size: 12px; fill: rgb(42, 63, 95); fill-opacity: 1; white-space: pre;" transform="translate(518.9100000000001,0)">Jan 2025</text></g><g class="xtick"><text text-anchor="middle" x="0" y="523" style="font-family: 'Open Sans', verdana, arial, sans-serif; font-size: 12px; fill: rgb(42, 63, 95); fill-opacity: 1; white-space: pre;" transform="translate(622.05,0)">Apr 2025</text></g><g class="xtick"><text text-anchor="middle" x="0" y="523" style="font-family: 'Open Sans', verdana, arial, sans-serif; font-size: 12px; fill: rgb(42, 63, 95); fill-opacity: 1; white-space: pre;" transform="translate(726.33,0)">Jul 2025</text></g><g class="xtick"><text text-anchor="middle" x="0" y="523" style="font-family: 'Open Sans', verdana, arial, sans-serif; font-size: 12px; fill: rgb(42, 63, 95); fill-opacity: 1; white-space: pre;" transform="translate(831.76,0)">Oct 2025</text></g></g><g class="yaxislayer-above"><g class="ytick"><text text-anchor="end" x="79" y="4.199999999999999" transform="translate(0,510)" style="font-family: 'Open Sans', verdana, arial, sans-serif; font-size: 12px; fill: rgb(179, 84, 58); fill-opacity: 1; white-space: pre;">0</text></g><g class="ytick"><text text-anchor="end" x="79" y="4.199999999999999" style="font-family: 'Open Sans', verdana, arial, sans-serif; font-size: 12px; fill: rgb(179, 84, 58); fill-opacity: 1; white-space: pre;" transform="translate(0,439.73)">100k</text></g><g class="ytick"><text text-anchor="end" x="79" y="4.199999999999999" style="font-family: 'Open Sans', verdana, arial, sans-serif; font-size: 12px; fill: rgb(179, 84, 58); fill-opacity: 1; white-space: pre;" transform="translate(0,369.47)">200k</text></g><g class="ytick"><text text-anchor="end" x="79" y="4.199999999999999" style="font-family: 'Open Sans', verdana, arial, sans-serif; font-size: 12px; fill: rgb(179, 84, 58); fill-opacity: 1; white-space: pre;" transform="translate(0,299.2)">300k</text></g><g class="ytick"><text text-anchor="end" x="79" y="4.199999999999999" style="font-family: 'Open Sans', verdana, arial, sans-serif; font-size: 12px; fill: rgb(179, 84, 58); fill-opacity: 1; white-space: pre;" transform="translate(0,228.93)">400k</text></g><g class="ytick"><text text-anchor="end" x="79" y="4.199999999999999" style="font-family: 'Open Sans', verdana, arial, sans-serif; font-size: 12px; fill: rgb(179, 84, 58); fill-opacity: 1; white-space: pre;" transform="translate(0,158.66)">500k</text></g></g><g class="overaxes-above"><g class="xy2-x"/><g class="xy2-y"><g class="y2tick"><text text-anchor="start" x="921" y="4.199999999999999" transform="translate(0,510)" style="font-family: 'Open Sans', verdana, arial, sans-serif; font-size: 12px; fill: rgb(26, 82, 118); fill-opacity: 1; white-space: pre;">0</text></g><g class="y2tick"><text text-anchor="start" x="921" y="4.199999999999999" style="font-family: 'Open Sans', verdana, arial, sans-serif; font-size: 12px; fill: rgb(26, 82, 118); fill-opacity: 1; white-space: pre;" transform="translate(0,465.23)">500</text></g><g class="y2tick"><text text-anchor="start" x="921" y="4.199999999999999" style="font-family: 'Open Sans', verdana, arial, sans-serif; font-size: 12px; fill: rgb(26, 82, 118); fill-opacity: 1; white-space: pre;" transform="translate(0,420.46)">1,000</text></g><g class="y2tick"><text text-anchor="start" x="921" y="4.199999999999999" style="font-family: 'Open Sans', verdana, arial, sans-serif; font-size: 12px; fill: rgb(26, 82, 118); fill-opacity: 1; white-space: pre;" transform="translate(0,375.69)">1,500</text></g><g class="y2tick"><text text-anchor="start" x="921" y="4.199999999999999" style="font-family: 'Open Sans', verdana, arial, sans-serif; font-size: 12px; fill: rgb(26, 82, 118); fill-opacity: 1; white-space: pre;" transform="translate(0,330.90999999999997)">2,000</text></g><g class="y2tick"><text text-anchor="start" x="921" y="4.199999999999999" style="font-family: 'Open Sans', verdana, arial, sans-serif; font-size: 12px; fill: rgb(26, 82, 118); fill-opacity: 1; white-space: pre;" transform="translate(0,286.14)">2,500</text></g><g class="y2tick"><text text-anchor="start" x="921" y="4.199999999999999" style="font-family: 'Open Sans', verdana, arial, sans-serif; font-size: 12px; fill: rgb(26, 82, 118); fill-opacity: 1; white-space: pre;" transform="translate(0,241.37)">3,000</text></g><g class="y2tick"><text text-anchor="start" x="921" y="4.199999999999999" style="font-family: 'Open Sans', verdana, arial, sans-serif; font-size: 12px; fill: rgb(26, 82, 118); fill-opacity: 1; white-space: pre;" transform="translate(0,196.6)">3,500</text></g><g class="y2tick"><text text-anchor="start" x="921" y="4.199999999999999" style="font-family: 'Open Sans', verdana, arial, sans-serif; font-size: 12px; fill: rgb(26, 82, 118); fill-opacity: 1; white-space: pre;" transform="translate(0,151.82999999999998)">4,000</text></g><g class="y2tick"><text text-anchor="start" x="921" y="4.199999999999999" style="font-family: 'Open Sans', verdana, arial, sans-serif; font-size: 12px; fill: rgb(26, 82, 118); fill-opacity: 1; white-space: pre;" transform="translate(0,107.06)">4,500</text></g></g></g></g><g class="subplot xy2"/></g><g class="polarlayer"/><g class="smithlayer"/><g class="ternarylayer"/><g class="geolayer"/><g class="funnelarealayer"/><g class="pielayer"/><g class="iciclelayer"/><g class="treemaplayer"/><g class="sunburstlayer"/><g class="glimages"/><defs id="topdefs-fe4939"><g class="clips"/><clipPath id="legendfe4939"><rect width="391" height="29" x="0" y="0"/></clipPath></defs><g class="layer-above"><g class="imagelayer"/><g class="shapelayer"/></g><g class="infolayer"><g class="legend" pointer-events="all" transform="translate(80,71)"><rect class="bg" shape-rendering="crispEdges" style="stroke: rgb(68, 68, 68); stroke-opacity: 1; fill: rgb(255, 255, 255); fill-opacity: 1; stroke-width: 0px;" width="391" height="29" x="0" y="0"/><g class="scrollbox" transform="" clip-path="url(#legendfe4939)"><g class="groups"><g class="traces" transform="translate(0,14.5)" style="opacity: 1;"><text class="legendtext" text-anchor="start" x="40" y="4.680000000000001" style="font-family: 'Open Sans', verdana, arial, sans-serif; font-size: 12px; fill: rgb(42, 63, 95); fill-opacity: 1; white-space: pre;">Outside agencies (left axis)</text><g class="layers" style="opacity: 1;"><g class="legendfill"/><g class="legendlines"/><g class="legendsymbols"><g class="legendpoints"><path class="legendundefined" d="M6,6H-6V-6H6Z" transform="translate(20,0)" style="stroke-width: 0.5px; fill: rgb(213, 134, 111); fill-opacity: 1; stroke: rgb(229, 236, 246); stroke-opacity: 1;"/></g></g></g><rect class="legendtoggle" x="0" y="-9.5" width="191.537109375" height="19" style="fill: rgb(0, 0, 0); fill-opacity: 0;"/></g><g class="traces" transform="translate(194.037109375,14.5)" style="opacity: 1;"><text class="legendtext" text-anchor="start" x="40" y="4.680000000000001" style="font-family: 'Open Sans', verdana, arial, sans-serif; font-size: 12px; fill: rgb(42, 63, 95); fill-opacity: 1; white-space: pre;">Kenner PD itself (right axis)</text><g class="layers" style="opacity: 1;"><g class="legendfill"/><g class="legendlines"><path class="js-line" d="M5,0h30" style="fill: none; stroke: rgb(26, 82, 118); stroke-opacity: 1; stroke-width: 3px;"/></g><g class="legendsymbols"><g class="legendpoints"><path class="scatterpts" transform="translate(20,0)" d="M3,0A3,3 0 1,1 0,-3A3,3 0 0,1 3,0Z" style="opacity: 1; stroke-width: 0px; fill: rgb(26, 82, 118); fill-opacity: 1;"/></g></g></g><rect class="legendtoggle" x="0" y="-9.5" width="193.611328125" height="19" style="fill: rgb(0, 0, 0); fill-opacity: 0;"/></g></g></g><rect class="scrollbar" rx="20" ry="3" width="0" height="0" style="fill: rgb(128, 139, 164); fill-opacity: 1;" x="0" y="0"/></g><g class="g-gtitle"><text class="gtitle" x="50" y="50" text-anchor="start" dy="0em" style="opacity: 1; font-family: 'Open Sans', verdana, arial, sans-serif; font-size: 17px; fill: rgb(42, 63, 95); fill-opacity: 1; white-space: pre;"><tspan class="line" dy="0em" x="50" y="50">Flock camera searches: Kenner PD vs. the rest of the network</tspan><tspan class="line" dy="1.3em" x="50" y="50">​<tspan style="font-size:70%" dy="-0.6em">Two different y-axis scales: outside agencies (bars, left, peaks ~550,000/month) search ~150x more than Kenner itself (line, right, peaks ~4,300/month).</tspan><tspan dy="0.42em">​</tspan></tspan></text></g><g class="g-xtitle"/><g class="g-ytitle"><text class="ytitle" transform="rotate(-90,32.709375,305)" x="32.709375" y="305" text-anchor="middle" style="opacity: 1; font-family: 'Open Sans', verdana, arial, sans-serif; font-size: 14px; fill: rgb(179, 84, 58); fill-opacity: 1; white-space: pre;">Searches by outside agencies / month</text></g><g class="g-y2title"><text class="y2title" transform="rotate(-90,975.825390625,305)" x="975.825390625" y="305" text-anchor="middle" style="opacity: 1; font-family: 'Open Sans', verdana, arial, sans-serif; font-size: 14px; fill: rgb(26, 82, 118); fill-opacity: 1; white-space: pre;">Searches by Kenner PD / month</text></g><g class="annotation" data-index="0" style="opacity: 1;"><g class="annotation-text-g" transform="rotate(0,509,574.8)"><g class="cursor-pointer" transform="translate(80,566)"><rect class="bg" x="0.5" y="0.5" width="857" height="17" style="stroke-width: 1px; stroke: rgb(0, 0, 0); stroke-opacity: 0; fill: rgb(0, 0, 0); fill-opacity: 0;"/><text class="annotation-text" text-anchor="middle" x="429.203125" y="13" style="font-family: 'Open Sans', verdana, arial, sans-serif; font-size: 10px; fill: rgb(102, 102, 102); fill-opacity: 1; white-space: pre;">Source: Kenner LA PD FOIA response via MuckRock (Flock audit logs). Full months only: Jan 2024 - Dec 2025. Methodology: results/internal-vs-network/ in the eos-foia-flock-kenner repo.</text></g></g></g></g></svg>