<svg class="main-svg" xmlns="http://www.w3.org/2000/svg" xmlns:xlink="http://www.w3.org/1999/xlink" width="1000" height="620" style="" viewBox="0 0 1000 620"><rect x="0" y="0" width="1000" height="620" style="fill: rgb(255, 255, 255); fill-opacity: 1;"/><defs id="defs-b7c257"><g class="clips"><clipPath id="clipb7c257xyplot" class="plotclip"><rect width="840" height="390"/></clipPath><clipPath id="clipb7c257xy2plot" class="plotclip"><rect width="840" height="390"/></clipPath><clipPath class="axesclip" id="clipb7c257x"><rect x="80" y="0" width="840" height="620"/></clipPath><clipPath class="axesclip" id="clipb7c257y"><rect x="0" y="100" width="1000" height="390"/></clipPath><clipPath class="axesclip" id="clipb7c257xy"><rect x="80" y="100" width="840" height="390"/></clipPath><clipPath class="axesclip" id="clipb7c257y2"><rect x="0" y="100" width="1000" height="390"/></clipPath><clipPath class="axesclip" id="clipb7c257xy2"><rect x="80" y="100" width="840" height="390"/></clipPath></g><g class="gradients"/><g class="patterns"/></defs><g class="bglayer"><rect class="bg" x="80" y="100" width="840" height="390" style="fill: rgb(229, 236, 246); fill-opacity: 1; stroke-width: 0;"/></g><g class="layer-below"><g class="imagelayer"/><g class="shapelayer"/></g><g class="cartesianlayer"><g class="subplot xy"><g class="layer-subplot"><g class="shapelayer"/><g class="imagelayer"/></g><g class="minor-gridlayer"><g class="x"/><g class="y"/><g class="y2"/></g><g class="gridlayer"><g class="x"/><g class="y"><path class="ygrid crisp" transform="translate(0,423.16)" d="M80,0h840" style="stroke: rgb(255, 255, 255); stroke-opacity: 1; stroke-width: 1px;"/><path class="ygrid crisp" transform="translate(0,356.32)" d="M80,0h840" style="stroke: rgb(255, 255, 255); stroke-opacity: 1; stroke-width: 1px;"/><path class="ygrid crisp" transform="translate(0,289.48)" d="M80,0h840" style="stroke: rgb(255, 255, 255); stroke-opacity: 1; stroke-width: 1px;"/><path class="ygrid crisp" transform="translate(0,222.64)" d="M80,0h840" style="stroke: rgb(255, 255, 255); stroke-opacity: 1; stroke-width: 1px;"/><path class="ygrid crisp" transform="translate(0,155.8)" d="M80,0h840" style="stroke: rgb(255, 255, 255); stroke-opacity: 1; stroke-width: 1px;"/></g><g class="y2"><path class="y2grid crisp" transform="translate(0,447.43)" d="M80,0h840" style="stroke: rgb(255, 255, 255); stroke-opacity: 1; stroke-width: 1px;"/><path class="y2grid crisp" transform="translate(0,404.87)" d="M80,0h840" style="stroke: rgb(255, 255, 255); stroke-opacity: 1; stroke-width: 1px;"/><path class="y2grid crisp" transform="translate(0,362.3)" d="M80,0h840" style="stroke: rgb(255, 255, 255); stroke-opacity: 1; stroke-width: 1px;"/><path class="y2grid crisp" transform="translate(0,319.74)" d="M80,0h840" style="stroke: rgb(255, 255, 255); stroke-opacity: 1; stroke-width: 1px;"/><path class="y2grid crisp" transform="translate(0,277.16999999999996)" d="M80,0h840" style="stroke: rgb(255, 255, 255); stroke-opacity: 1; stroke-width: 1px;"/><path class="y2grid crisp" transform="translate(0,234.6)" d="M80,0h840" style="stroke: rgb(255, 255, 255); stroke-opacity: 1; stroke-width: 1px;"/><path class="y2grid crisp" transform="translate(0,192.04000000000002)" d="M80,0h840" style="stroke: rgb(255, 255, 255); stroke-opacity: 1; stroke-width: 1px;"/><path class="y2grid crisp" transform="translate(0,149.47)" d="M80,0h840" style="stroke: rgb(255, 255, 255); stroke-opacity: 1; stroke-width: 1px;"/><path class="y2grid crisp" transform="translate(0,106.9)" d="M80,0h840" style="stroke: rgb(255, 255, 255); stroke-opacity: 1; stroke-width: 1px;"/></g></g><g class="zerolinelayer"><path class="yzl zl crisp" transform="translate(0,490)" d="M80,0h840" style="stroke: rgb(255, 255, 255); stroke-opacity: 1; stroke-width: 2px;"/><path class="y2zl zl crisp" transform="translate(0,490)" d="M80,0h840" style="stroke: rgb(255, 255, 255); stroke-opacity: 1; stroke-width: 2px;"/></g><g class="layer-between"><g class="shapelayer"/><g class="imagelayer"/></g><path class="xlines-below"/><path class="ylines-below"/><g class="overlines-below"><path class="xy2-x"/><path class="xy2-y"/></g><g class="xaxislayer-below"/><g class="yaxislayer-below"/><g class="overaxes-below"><g class="xy2-x"/><g class="xy2-y"/></g><g class="overplot"><g class="xy" transform="translate(80,100)" clip-path="url(#clipb7c257xyplot)"><g class="barlayer mlayer"><g class="trace bars" style="opacity: 1;"><g class="points"><g class="point"><path d="M6.65,390V259.1H32.32V390Z" style="vector-effect: none; opacity: 1; stroke-width: 0.5px; fill: rgb(213, 134, 111); fill-opacity: 1; stroke: rgb(229, 236, 246); stroke-opacity: 1;"/></g><g class="point"><path d="M42.17,390V245.43H67.84V390Z" style="vector-effect: none; opacity: 1; stroke-width: 0.5px; fill: rgb(213, 134, 111); fill-opacity: 1; stroke: rgb(229, 236, 246); stroke-opacity: 1;"/></g><g class="point"><path d="M75.41,390V234.82H101.08V390Z" style="vector-effect: none; opacity: 1; stroke-width: 0.5px; fill: rgb(213, 134, 111); fill-opacity: 1; stroke: rgb(229, 236, 246); stroke-opacity: 1;"/></g><g class="point"><path d="M110.93,390V235.57H136.6V390Z" style="vector-effect: none; opacity: 1; stroke-width: 0.5px; fill: rgb(213, 134, 111); fill-opacity: 1; stroke: rgb(229, 236, 246); stroke-opacity: 1;"/></g><g class="point"><path d="M145.31,390V196.45H170.98V390Z" style="vector-effect: none; opacity: 1; stroke-width: 0.5px; fill: rgb(213, 134, 111); fill-opacity: 1; stroke: rgb(229, 236, 246); stroke-opacity: 1;"/></g><g class="point"><path d="M180.83,390V167.54H206.5V390Z" style="vector-effect: none; opacity: 1; stroke-width: 0.5px; fill: rgb(213, 134, 111); fill-opacity: 1; stroke: rgb(229, 236, 246); stroke-opacity: 1;"/></g><g class="point"><path d="M215.21,390V145.81H240.88V390Z" style="vector-effect: none; opacity: 1; stroke-width: 0.5px; fill: rgb(213, 134, 111); fill-opacity: 1; stroke: rgb(229, 236, 246); stroke-opacity: 1;"/></g><g class="point"><path d="M250.74,390V134.16H276.41V390Z" style="vector-effect: none; opacity: 1; stroke-width: 0.5px; fill: rgb(213, 134, 111); fill-opacity: 1; stroke: rgb(229, 236, 246); stroke-opacity: 1;"/></g><g class="point"><path d="M286.26,390V158.79H311.93V390Z" style="vector-effect: none; opacity: 1; stroke-width: 0.5px; fill: rgb(213, 134, 111); fill-opacity: 1; stroke: rgb(229, 236, 246); stroke-opacity: 1;"/></g><g class="point"><path d="M320.64,390V122.77H346.31V390Z" style="vector-effect: none; opacity: 1; stroke-width: 0.5px; fill: rgb(213, 134, 111); fill-opacity: 1; stroke: rgb(229, 236, 246); stroke-opacity: 1;"/></g><g class="point"><path d="M356.17,390V141.03H381.84V390Z" style="vector-effect: none; opacity: 1; stroke-width: 0.5px; fill: rgb(213, 134, 111); fill-opacity: 1; stroke: rgb(229, 236, 246); stroke-opacity: 1;"/></g><g class="point"><path d="M390.55,390V117.49H416.22V390Z" style="vector-effect: none; opacity: 1; stroke-width: 0.5px; fill: rgb(213, 134, 111); fill-opacity: 1; stroke: rgb(229, 236, 246); stroke-opacity: 1;"/></g><g class="point"><path d="M426.07,390V80.87H451.74V390Z" style="vector-effect: none; opacity: 1; stroke-width: 0.5px; fill: rgb(213, 134, 111); fill-opacity: 1; stroke: rgb(229, 236, 246); stroke-opacity: 1;"/></g><g class="point"><path d="M461.6,390V49.68H487.27V390Z" style="vector-effect: none; opacity: 1; stroke-width: 0.5px; fill: rgb(213, 134, 111); fill-opacity: 1; stroke: rgb(229, 236, 246); stroke-opacity: 1;"/></g><g class="point"><path d="M493.69,390V53.73H519.36V390Z" style="vector-effect: none; opacity: 1; stroke-width: 0.5px; fill: rgb(213, 134, 111); fill-opacity: 1; stroke: rgb(229, 236, 246); stroke-opacity: 1;"/></g><g class="point"><path d="M529.21,390V38.07H554.88V390Z" style="vector-effect: none; opacity: 1; stroke-width: 0.5px; fill: rgb(213, 134, 111); fill-opacity: 1; stroke: rgb(229, 236, 246); stroke-opacity: 1;"/></g><g class="point"><path d="M563.59,390V29.44H589.26V390Z" style="vector-effect: none; opacity: 1; stroke-width: 0.5px; fill: rgb(213, 134, 111); fill-opacity: 1; stroke: rgb(229, 236, 246); stroke-opacity: 1;"/></g><g class="point"><path d="M599.12,390V29.51H624.79V390Z" style="vector-effect: none; opacity: 1; stroke-width: 0.5px; fill: rgb(213, 134, 111); fill-opacity: 1; stroke: rgb(229, 236, 246); stroke-opacity: 1;"/></g><g class="point"><path d="M633.5,390V29.31H659.17V390Z" style="vector-effect: none; opacity: 1; stroke-width: 0.5px; fill: rgb(213, 134, 111); fill-opacity: 1; stroke: rgb(229, 236, 246); stroke-opacity: 1;"/></g><g class="point"><path d="M669.02,390V48.1H694.69V390Z" style="vector-effect: none; opacity: 1; stroke-width: 0.5px; fill: rgb(213, 134, 111); fill-opacity: 1; stroke: rgb(229, 236, 246); stroke-opacity: 1;"/></g><g class="point"><path d="M704.55,390V69.19H730.22V390Z" style="vector-effect: none; opacity: 1; stroke-width: 0.5px; fill: rgb(213, 134, 111); fill-opacity: 1; stroke: rgb(229, 236, 246); stroke-opacity: 1;"/></g><g class="point"><path d="M738.92,390V19.5H764.59V390Z" style="vector-effect: none; opacity: 1; stroke-width: 0.5px; fill: rgb(213, 134, 111); fill-opacity: 1; stroke: rgb(229, 236, 246); stroke-opacity: 1;"/></g><g class="point"><path d="M774.45,390V48.89H800.12V390Z" style="vector-effect: none; opacity: 1; stroke-width: 0.5px; fill: rgb(213, 134, 111); fill-opacity: 1; stroke: rgb(229, 236, 246); stroke-opacity: 1;"/></g><g class="point"><path d="M808.83,390V34.84H834.5V390Z" style="vector-effect: none; opacity: 1; stroke-width: 0.5px; fill: rgb(213, 134, 111); fill-opacity: 1; stroke: rgb(229, 236, 246); stroke-opacity: 1;"/></g></g></g></g></g><g class="xy2" transform="translate(80,100)" clip-path="url(#clipb7c257xy2plot)"><g class="scatterlayer mlayer"><g class="trace scatter trace9d6894" style="stroke-miterlimit: 2; opacity: 1;"><g class="fills"/><g class="errorbars"/><g class="lines"><path class="js-line" d="M19.48,104.04L55.01,153.93L88.24,202.37L123.77,227.57L158.14,255.92L193.67,258.13L228.05,189.34L263.57,146.18L299.1,255.75L333.48,178.19L369,203.73L403.38,135.03L438.91,23.25L474.43,96.29L506.52,189.85L542.05,31.68L576.43,90.76L611.95,180.15L646.33,77.99L681.86,120.3L717.38,210.63L751.76,197.94L787.29,119.28L821.66,103.7" style="vector-effect: none; fill: none; stroke: rgb(26, 82, 118); stroke-opacity: 1; stroke-width: 3px; opacity: 1;"/></g><g class="points"><path class="point" transform="translate(19.48,104.04)" d="M3,0A3,3 0 1,1 0,-3A3,3 0 0,1 3,0Z" style="opacity: 1; stroke-width: 0px; fill: rgb(26, 82, 118); fill-opacity: 1;"/><path class="point" transform="translate(55.01,153.93)" d="M3,0A3,3 0 1,1 0,-3A3,3 0 0,1 3,0Z" style="opacity: 1; stroke-width: 0px; fill: rgb(26, 82, 118); fill-opacity: 1;"/><path class="point" transform="translate(88.24,202.37)" d="M3,0A3,3 0 1,1 0,-3A3,3 0 0,1 3,0Z" style="opacity: 1; stroke-width: 0px; fill: rgb(26, 82, 118); fill-opacity: 1;"/><path class="point" transform="translate(123.77,227.57)" d="M3,0A3,3 0 1,1 0,-3A3,3 0 0,1 3,0Z" style="opacity: 1; stroke-width: 0px; fill: rgb(26, 82, 118); fill-opacity: 1;"/><path class="point" transform="translate(158.14,255.92)" d="M3,0A3,3 0 1,1 0,-3A3,3 0 0,1 3,0Z" style="opacity: 1; stroke-width: 0px; fill: rgb(26, 82, 118); fill-opacity: 1;"/><path class="point" transform="translate(193.67,258.13)" d="M3,0A3,3 0 1,1 0,-3A3,3 0 0,1 3,0Z" style="opacity: 1; stroke-width: 0px; fill: rgb(26, 82, 118); fill-opacity: 1;"/><path class="point" transform="translate(228.05,189.34)" d="M3,0A3,3 0 1,1 0,-3A3,3 0 0,1 3,0Z" style="opacity: 1; stroke-width: 0px; fill: rgb(26, 82, 118); fill-opacity: 1;"/><path class="point" transform="translate(263.57,146.18)" d="M3,0A3,3 0 1,1 0,-3A3,3 0 0,1 3,0Z" style="opacity: 1; stroke-width: 0px; fill: rgb(26, 82, 118); fill-opacity: 1;"/><path class="point" transform="translate(299.1,255.75)" d="M3,0A3,3 0 1,1 0,-3A3,3 0 0,1 3,0Z" style="opacity: 1; stroke-width: 0px; fill: rgb(26, 82, 118); fill-opacity: 1;"/><path class="point" transform="translate(333.48,178.19)" d="M3,0A3,3 0 1,1 0,-3A3,3 0 0,1 3,0Z" style="opacity: 1; stroke-width: 0px; fill: rgb(26, 82, 118); fill-opacity: 1;"/><path class="point" transform="translate(369,203.73)" d="M3,0A3,3 0 1,1 0,-3A3,3 0 0,1 3,0Z" style="opacity: 1; stroke-width: 0px; fill: rgb(26, 82, 118); fill-opacity: 1;"/><path class="point" transform="translate(403.38,135.03)" d="M3,0A3,3 0 1,1 0,-3A3,3 0 0,1 3,0Z" style="opacity: 1; stroke-width: 0px; fill: rgb(26, 82, 118); fill-opacity: 1;"/><path class="point" transform="translate(438.91,23.25)" d="M3,0A3,3 0 1,1 0,-3A3,3 0 0,1 3,0Z" style="opacity: 1; stroke-width: 0px; fill: rgb(26, 82, 118); fill-opacity: 1;"/><path class="point" transform="translate(474.43,96.29)" d="M3,0A3,3 0 1,1 0,-3A3,3 0 0,1 3,0Z" style="opacity: 1; stroke-width: 0px; fill: rgb(26, 82, 118); fill-opacity: 1;"/><path class="point" transform="translate(506.52,189.85)" d="M3,0A3,3 0 1,1 0,-3A3,3 0 0,1 3,0Z" style="opacity: 1; stroke-width: 0px; fill: rgb(26, 82, 118); fill-opacity: 1;"/><path class="point" transform="translate(542.05,31.68)" d="M3,0A3,3 0 1,1 0,-3A3,3 0 0,1 3,0Z" style="opacity: 1; stroke-width: 0px; fill: rgb(26, 82, 118); fill-opacity: 1;"/><path class="point" transform="translate(576.43,90.76)" d="M3,0A3,3 0 1,1 0,-3A3,3 0 0,1 3,0Z" style="opacity: 1; stroke-width: 0px; fill: rgb(26, 82, 118); fill-opacity: 1;"/><path class="point" transform="translate(611.95,180.15)" d="M3,0A3,3 0 1,1 0,-3A3,3 0 0,1 3,0Z" style="opacity: 1; stroke-width: 0px; fill: rgb(26, 82, 118); fill-opacity: 1;"/><path class="point" transform="translate(646.33,77.99)" d="M3,0A3,3 0 1,1 0,-3A3,3 0 0,1 3,0Z" style="opacity: 1; stroke-width: 0px; fill: rgb(26, 82, 118); fill-opacity: 1;"/><path class="point" transform="translate(681.86,120.3)" d="M3,0A3,3 0 1,1 0,-3A3,3 0 0,1 3,0Z" style="opacity: 1; stroke-width: 0px; fill: rgb(26, 82, 118); fill-opacity: 1;"/><path class="point" transform="translate(717.38,210.63)" d="M3,0A3,3 0 1,1 0,-3A3,3 0 0,1 3,0Z" style="opacity: 1; stroke-width: 0px; fill: rgb(26, 82, 118); fill-opacity: 1;"/><path class="point" transform="translate(751.76,197.94)" d="M3,0A3,3 0 1,1 0,-3A3,3 0 0,1 3,0Z" style="opacity: 1; stroke-width: 0px; fill: rgb(26, 82, 118); fill-opacity: 1;"/><path class="point" transform="translate(787.29,119.28)" d="M3,0A3,3 0 1,1 0,-3A3,3 0 0,1 3,0Z" style="opacity: 1; stroke-width: 0px; fill: rgb(26, 82, 118); fill-opacity: 1;"/><path class="point" transform="translate(821.66,103.7)" d="M3,0A3,3 0 1,1 0,-3A3,3 0 0,1 3,0Z" style="opacity: 1; stroke-width: 0px; fill: rgb(26, 82, 118); fill-opacity: 1;"/></g><g class="text"/></g></g></g></g><g class="zerolinelayer-above"/><path class="xlines-above crisp" d="M0,0" style="fill: none;"/><path class="ylines-above crisp" d="M0,0" style="fill: none;"/><g class="overlines-above"><path class="xy2-x crisp" d="M0,0" style="fill: none;"/><path class="xy2-y crisp" d="M0,0" style="fill: none;"/></g><g class="xaxislayer-above"><g class="xtick"><text text-anchor="middle" x="0" y="503" transform="translate(99.48,0)" style="font-family: 'Open Sans', verdana, arial, sans-serif; font-size: 12px; fill: rgb(42, 63, 95); fill-opacity: 1; white-space: pre;">Jan 2024</text></g><g class="xtick"><text text-anchor="middle" x="0" y="503" style="font-family: 'Open Sans', verdana, arial, sans-serif; font-size: 12px; fill: rgb(42, 63, 95); fill-opacity: 1; white-space: pre;" transform="translate(203.76999999999998,0)">Apr 2024</text></g><g class="xtick"><text text-anchor="middle" x="0" y="503" style="font-family: 'Open Sans', verdana, arial, sans-serif; font-size: 12px; fill: rgb(42, 63, 95); fill-opacity: 1; white-space: pre;" transform="translate(308.05,0)">Jul 2024</text></g><g class="xtick"><text text-anchor="middle" x="0" y="503" style="font-family: 'Open Sans', verdana, arial, sans-serif; font-size: 12px; fill: rgb(42, 63, 95); fill-opacity: 1; white-space: pre;" transform="translate(413.48,0)">Oct 2024</text></g><g class="xtick"><text text-anchor="middle" x="0" y="503" style="font-family: 'Open Sans', verdana, arial, sans-serif; font-size: 12px; fill: rgb(42, 63, 95); fill-opacity: 1; white-space: pre;" transform="translate(518.9100000000001,0)">Jan 2025</text></g><g class="xtick"><text text-anchor="middle" x="0" y="503" style="font-family: 'Open Sans', verdana, arial, sans-serif; font-size: 12px; fill: rgb(42, 63, 95); fill-opacity: 1; white-space: pre;" transform="translate(622.05,0)">Apr 2025</text></g><g class="xtick"><text text-anchor="middle" x="0" y="503" style="font-family: 'Open Sans', verdana, arial, sans-serif; font-size: 12px; fill: rgb(42, 63, 95); fill-opacity: 1; white-space: pre;" transform="translate(726.33,0)">Jul 2025</text></g><g class="xtick"><text text-anchor="middle" x="0" y="503" style="font-family: 'Open Sans', verdana, arial, sans-serif; font-size: 12px; fill: rgb(42, 63, 95); fill-opacity: 1; white-space: pre;" transform="translate(831.76,0)">Oct 2025</text></g></g><g class="yaxislayer-above"><g class="ytick"><text text-anchor="end" x="79" y="4.199999999999999" transform="translate(0,490)" style="font-family: 'Open Sans', verdana, arial, sans-serif; font-size: 12px; fill: rgb(179, 84, 58); fill-opacity: 1; white-space: pre;">0</text></g><g class="ytick"><text text-anchor="end" x="79" y="4.199999999999999" style="font-family: 'Open Sans', verdana, arial, sans-serif; font-size: 12px; fill: rgb(179, 84, 58); fill-opacity: 1; white-space: pre;" transform="translate(0,423.16)">100k</text></g><g class="ytick"><text text-anchor="end" x="79" y="4.199999999999999" style="font-family: 'Open Sans', verdana, arial, sans-serif; font-size: 12px; fill: rgb(179, 84, 58); fill-opacity: 1; white-space: pre;" transform="translate(0,356.32)">200k</text></g><g class="ytick"><text text-anchor="end" x="79" y="4.199999999999999" style="font-family: 'Open Sans', verdana, arial, sans-serif; font-size: 12px; fill: rgb(179, 84, 58); fill-opacity: 1; white-space: pre;" transform="translate(0,289.48)">300k</text></g><g class="ytick"><text text-anchor="end" x="79" y="4.199999999999999" style="font-family: 'Open Sans', verdana, arial, sans-serif; font-size: 12px; fill: rgb(179, 84, 58); fill-opacity: 1; white-space: pre;" transform="translate(0,222.64)">400k</text></g><g class="ytick"><text text-anchor="end" x="79" y="4.199999999999999" style="font-family: 'Open Sans', verdana, arial, sans-serif; font-size: 12px; fill: rgb(179, 84, 58); fill-opacity: 1; white-space: pre;" transform="translate(0,155.8)">500k</text></g></g><g class="overaxes-above"><g class="xy2-x"/><g class="xy2-y"><g class="y2tick"><text text-anchor="start" x="921" y="4.199999999999999" transform="translate(0,490)" style="font-family: 'Open Sans', verdana, arial, sans-serif; font-size: 12px; fill: rgb(26, 82, 118); fill-opacity: 1; white-space: pre;">0</text></g><g class="y2tick"><text text-anchor="start" x="921" y="4.199999999999999" style="font-family: 'Open Sans', verdana, arial, sans-serif; font-size: 12px; fill: rgb(26, 82, 118); fill-opacity: 1; white-space: pre;" transform="translate(0,447.43)">500</text></g><g class="y2tick"><text text-anchor="start" x="921" y="4.199999999999999" style="font-family: 'Open Sans', verdana, arial, sans-serif; font-size: 12px; fill: rgb(26, 82, 118); fill-opacity: 1; white-space: pre;" transform="translate(0,404.87)">1,000</text></g><g class="y2tick"><text text-anchor="start" x="921" y="4.199999999999999" style="font-family: 'Open Sans', verdana, arial, sans-serif; font-size: 12px; fill: rgb(26, 82, 118); fill-opacity: 1; white-space: pre;" transform="translate(0,362.3)">1,500</text></g><g class="y2tick"><text text-anchor="start" x="921" y="4.199999999999999" style="font-family: 'Open Sans', verdana, arial, sans-serif; font-size: 12px; fill: rgb(26, 82, 118); fill-opacity: 1; white-space: pre;" transform="translate(0,319.74)">2,000</text></g><g class="y2tick"><text text-anchor="start" x="921" y="4.199999999999999" style="font-family: 'Open Sans', verdana, arial, sans-serif; font-size: 12px; fill: rgb(26, 82, 118); fill-opacity: 1; white-space: pre;" transform="translate(0,277.16999999999996)">2,500</text></g><g class="y2tick"><text text-anchor="start" x="921" y="4.199999999999999" style="font-family: 'Open Sans', verdana, arial, sans-serif; font-size: 12px; fill: rgb(26, 82, 118); fill-opacity: 1; white-space: pre;" transform="translate(0,234.6)">3,000</text></g><g class="y2tick"><text text-anchor="start" x="921" y="4.199999999999999" style="font-family: 'Open Sans', verdana, arial, sans-serif; font-size: 12px; fill: rgb(26, 82, 118); fill-opacity: 1; white-space: pre;" transform="translate(0,192.04000000000002)">3,500</text></g><g class="y2tick"><text text-anchor="start" x="921" y="4.199999999999999" style="font-family: 'Open Sans', verdana, arial, sans-serif; font-size: 12px; fill: rgb(26, 82, 118); fill-opacity: 1; white-space: pre;" transform="translate(0,149.47)">4,000</text></g><g class="y2tick"><text text-anchor="start" x="921" y="4.199999999999999" style="font-family: 'Open Sans', verdana, arial, sans-serif; font-size: 12px; fill: rgb(26, 82, 118); fill-opacity: 1; white-space: pre;" transform="translate(0,106.9)">4,500</text></g></g></g></g><g class="subplot xy2"/></g><g class="polarlayer"/><g class="smithlayer"/><g class="ternarylayer"/><g class="geolayer"/><g class="funnelarealayer"/><g class="pielayer"/><g class="iciclelayer"/><g class="treemaplayer"/><g class="sunburstlayer"/><g class="glimages"/><defs id="topdefs-b7c257"><g class="clips"/><clipPath id="legendb7c257"><rect width="391" height="29" x="0" y="0"/></clipPath></defs><g class="layer-above"><g class="imagelayer"/><g class="shapelayer"/></g><g class="infolayer"><g class="legend" pointer-events="all" transform="translate(80,71)"><rect class="bg" shape-rendering="crispEdges" style="stroke: rgb(68, 68, 68); stroke-opacity: 1; fill: rgb(255, 255, 255); fill-opacity: 1; stroke-width: 0px;" width="391" height="29" x="0" y="0"/><g class="scrollbox" transform="" clip-path="url(#legendb7c257)"><g class="groups"><g class="traces" transform="translate(0,14.5)" style="opacity: 1;"><text class="legendtext" text-anchor="start" x="40" y="4.680000000000001" style="font-family: 'Open Sans', verdana, arial, sans-serif; font-size: 12px; fill: rgb(42, 63, 95); fill-opacity: 1; white-space: pre;">Outside agencies (left axis)</text><g class="layers" style="opacity: 1;"><g class="legendfill"/><g class="legendlines"/><g class="legendsymbols"><g class="legendpoints"><path class="legendundefined" d="M6,6H-6V-6H6Z" transform="translate(20,0)" style="stroke-width: 0.5px; fill: rgb(213, 134, 111); fill-opacity: 1; stroke: rgb(229, 236, 246); stroke-opacity: 1;"/></g></g></g><rect class="legendtoggle" x="0" y="-9.5" width="191.537109375" height="19" style="fill: rgb(0, 0, 0); fill-opacity: 0;"/></g><g class="traces" transform="translate(194.037109375,14.5)" style="opacity: 1;"><text class="legendtext" text-anchor="start" x="40" y="4.680000000000001" style="font-family: 'Open Sans', verdana, arial, sans-serif; font-size: 12px; fill: rgb(42, 63, 95); fill-opacity: 1; white-space: pre;">Kenner PD itself (right axis)</text><g class="layers" style="opacity: 1;"><g class="legendfill"/><g class="legendlines"><path class="js-line" d="M5,0h30" style="fill: none; stroke: rgb(26, 82, 118); stroke-opacity: 1; stroke-width: 3px;"/></g><g class="legendsymbols"><g class="legendpoints"><path class="scatterpts" transform="translate(20,0)" d="M3,0A3,3 0 1,1 0,-3A3,3 0 0,1 3,0Z" style="opacity: 1; stroke-width: 0px; fill: rgb(26, 82, 118); fill-opacity: 1;"/></g></g></g><rect class="legendtoggle" x="0" y="-9.5" width="193.611328125" height="19" style="fill: rgb(0, 0, 0); fill-opacity: 0;"/></g></g></g><rect class="scrollbar" rx="20" ry="3" width="0" height="0" style="fill: rgb(128, 139, 164); fill-opacity: 1;" x="0" y="0"/></g><g class="g-gtitle"><text class="gtitle" x="50" y="50" text-anchor="start" dy="0em" style="opacity: 1; font-family: 'Open Sans', verdana, arial, sans-serif; font-size: 17px; fill: rgb(42, 63, 95); fill-opacity: 1; white-space: pre;"><tspan class="line" dy="0em" x="50" y="50">Flock camera searches: Kenner PD vs. the rest of the network</tspan><tspan class="line" dy="1.3em" x="50" y="50">​<tspan style="font-size:70%" dy="-0.6em">Two different y-axis scales: outside agencies (bars, left, peaks ~550,000/month) search ~150x more than Kenner itself (line, right, peaks ~4,300/month).</tspan><tspan dy="0.42em">​</tspan></tspan></text></g><g class="g-xtitle"/><g class="g-ytitle"><text class="ytitle" transform="rotate(-90,32.709375,295)" x="32.709375" y="295" text-anchor="middle" style="opacity: 1; font-family: 'Open Sans', verdana, arial, sans-serif; font-size: 14px; fill: rgb(179, 84, 58); fill-opacity: 1; white-space: pre;">Searches by outside agencies / month</text></g><g class="g-y2title"><text class="y2title" transform="rotate(-90,975.825390625,295)" x="975.825390625" y="295" text-anchor="middle" style="opacity: 1; font-family: 'Open Sans', verdana, arial, sans-serif; font-size: 14px; fill: rgb(26, 82, 118); fill-opacity: 1; white-space: pre;">Searches by Kenner PD / month</text></g><g class="annotation" data-index="0" style="opacity: 1;"><g class="annotation-text-g" transform="rotate(0,291.5,538.2)"><g class="cursor-pointer" transform="translate(80,516)"><rect class="bg" x="0.5" y="0.5" width="422" height="43" style="stroke-width: 1px; stroke: rgb(0, 0, 0); stroke-opacity: 0; fill: rgb(0, 0, 0); fill-opacity: 0;"/><text class="annotation-text" text-anchor="middle" x="211.453125" y="13" style="font-family: 'Open Sans', verdana, arial, sans-serif; font-size: 10px; fill: rgb(102, 102, 102); fill-opacity: 1; white-space: pre; pointer-events: all;"><tspan class="line" dy="0em" x="211.453125" y="13">Source: public record request (Flock audit logs, full months only Jan 2024 - Dec 2025):</tspan><tspan class="line" dy="1.3em" x="211.453125" y="13"><a xlink:show="new" target="_blank" xlink:href="https://www.muckrock.com/foi/kenner-16256/public-records-request-flock-audits-201972/" style="cursor:pointer">https://www.muckrock.com/foi/kenner-16256/public-records-request-flock-audits-201972/</a></tspan><tspan class="line" dy="2.6em" x="211.453125" y="13">More info on the methodology on <a xlink:show="new" target="_blank" xlink:href="https://github.com/eye-on-surveillance/foia-flock-kenner" style="cursor:pointer">github.com/eye-on-surveillance</a></tspan></text></g></g></g></g></svg>